<?xml version="1.0" encoding="UTF-8" standalone="no"?>
<!-- Generated by Microsoft Visio, SVG Export architecture.svg Page-1 -->

<svg
   width="7.0970001in"
   height="4.3760123in"
   viewBox="0 0 510.98413 315.07334"
   xml:space="preserve"
   color-interpolation-filters="sRGB"
   class="st9"
   version="1.1"
   id="svg47"
   sodipodi:docname="architecture.svg"
   inkscape:version="1.3 (0e150ed6c4, 2023-07-21)"
   xmlns:inkscape="http://www.inkscape.org/namespaces/inkscape"
   xmlns:sodipodi="http://sodipodi.sourceforge.net/DTD/sodipodi-0.dtd"
   xmlns="http://www.w3.org/2000/svg"
   xmlns:svg="http://www.w3.org/2000/svg"><defs
   id="defs47" /><sodipodi:namedview
   id="namedview47"
   pagecolor="#ffffff"
   bordercolor="#000000"
   borderopacity="0.25"
   inkscape:showpageshadow="2"
   inkscape:pageopacity="0.0"
   inkscape:pagecheckerboard="0"
   inkscape:deskcolor="#d1d1d1"
   inkscape:document-units="in"
   inkscape:zoom="0.69219357"
   inkscape:cx="340.22275"
   inkscape:cy="218.86941"
   inkscape:window-width="1920"
   inkscape:window-height="991"
   inkscape:window-x="-9"
   inkscape:window-y="1491"
   inkscape:window-maximized="1"
   inkscape:current-layer="svg47" />&#10;	<style
   type="text/css"
   id="style1">&#10;	<![CDATA[
		.st1 {fill:#ffffff;stroke:#000000;stroke-linecap:round;stroke-linejoin:round;stroke-width:0.75}
		.st2 {fill:#000000}
		.st3 {fill:#ffffff;stroke:#000000;stroke-linecap:round;stroke-linejoin:round;stroke-width:0.24}
		.st4 {fill:#000000;font-family:Calibri;font-size:0.833336em}
		.st5 {stroke:#000000;stroke-linecap:round;stroke-linejoin:round;stroke-width:0.75}
		.st6 {fill:#ffffff;stroke:none;stroke-linecap:round;stroke-linejoin:round;stroke-width:0.24}
		.st7 {fill:#000000;font-family:Calibri;font-size:0.833336em;font-weight:bold}
		.st8 {fill:#000000;stroke:none;stroke-linecap:butt;stroke-width:0.75}
		.st9 {fill:none;fill-rule:evenodd;font-size:12px;overflow:visible;stroke-linecap:square;stroke-miterlimit:3}
	]]>&#10;	</style>&#10;&#10;	<g
   id="g47"
   transform="translate(-42.145128,-256.712)">&#10;		<title
   id="title1">Page-1</title>&#10;		<g
   id="group1-1"
   transform="translate(42.5197,-399.685)">&#10;			<title
   id="title2">Terminal</title>&#10;			<g
   id="shape2-2"
   transform="translate(0,-4.14563)">&#10;				<title
   id="title3">Sheet.2</title>&#10;				<path
   d="M 67.46,779.31 H 4.12 v 42.27 h 63.34 z m 3.41,62.58 -10.63,-13.33 H 10.63 L 0,841.89 Z M 41,821.58 H 29.87 v 6.98 H 41 Z"
   class="st1"
   id="path3" />&#10;			</g>&#10;			<g
   id="shape3-4"
   transform="translate(8.22949,-28.2604)">&#10;				<title
   id="title4">Sheet.3</title>&#10;				<path
   d="M 55.21,807.62 H 0 v 34.27 h 55.21 z"
   class="st1"
   id="path4" />&#10;			</g>&#10;			<g
   id="shape4-6"
   transform="translate(9.64422,-6.8964)">&#10;				<title
   id="title5">Sheet.4</title>&#10;				<path
   d="m 48.39,836.72 h -3.15 l 1.77,1.96 h 3.39 z m -3.56,-3.48 h -2.71 l 1.89,2.11 h 2.98 z m -1.28,3.48 H 40.4 l 1.38,1.96 h 3.4 z m -2.89,-3.48 h -2.72 l 1.49,2.11 h 2.98 z m -1.96,3.48 h -3.15 l 1.01,1.96 h 3.4 z m -2.21,-3.48 h -2.71 l 1.08,2.15 h 2.99 z m -2.63,3.48 h -3.15 l 0.63,1.96 h 3.39 z m -1.48,-3.33 h -2.74 l 0.64,2 h 2.99 z m -3.37,3.33 h -3.15 l 0.25,1.96 h 3.4 z m -0.79,-3.16 h -2.76 l 0.25,1.96 h 3 z m -4.24,0 h -2.75 l -0.13,1.96 h 3 z m 0.19,3.16 h -3.15 l -0.13,1.96 h 3.4 z m -4.42,-3.16 H 17 l -0.51,1.96 h 3 z m -0.42,3.16 h -3.15 l -0.51,1.96 h 3.39 z m 17.27,3.21 H 14.38 l -0.58,1.96 h 23.76 z m -21.09,-6.37 h -2.75 l -0.88,1.96 h 2.99 z m -1.03,3.16 h -3.15 l -0.89,1.96 h 3.4 z m -3.2,-3.16 H 8.53 l -1.27,1.96 h 3 z m -1.64,3.16 H 6.49 l -1.27,1.96 h 3.4 z M 7.05,833.56 H 4.29 l -1.64,1.96 h 3 z m -2.26,3.16 H 1.64 L 0,838.68 h 3.4 z"
   class="st2"
   id="path5" />&#10;			</g>&#10;		</g>&#10;		<g
   id="group5-9"
   transform="translate(178.583,-391.89)">&#10;			<title
   id="title6">Cloud</title>&#10;			<g
   id="shape6-10"
   transform="translate(0,-18.4448)">&#10;				<title
   id="title7">Sheet.6</title>&#10;				<path
   d="m 74.59,805.83 c -0.46,-4.09 -4.18,-7.28 -8.74,-7.28 -1.3,0 -2.51,0.27 -3.62,0.73 -2.15,-4.02 -6.59,-6.96 -14.93,-6.72 -10.83,0.31 -23.66,5.18 -26.24,13.84 -3.09,0.59 -5.07,2.26 -6.26,4.49 -0.48,-0.05 -0.97,-0.08 -1.47,-0.08 -7.13,0 -12.61,5.2 -12.92,11.61 -0.41,8.3 5.79,11.62 12.92,11.62 1.02,0 2,-0.12 2.96,-0.32 1.48,0.97 3.41,1.56 5.53,1.56 1.96,0 3.76,-0.51 5.2,-1.35 2.74,4.67 8.39,7.96 14.89,7.57 6.86,-0.39 10.97,-1.85 13.39,-4.11 0.16,-0.01 0.3,-0.01 0.45,-0.03 7.66,-0.99 11.03,-2.97 12.11,-6.24 0.21,0.01 0.41,0.01 0.62,0.01 9.93,0 17.98,-2.9 17.98,-13.06 0,-5.65 -4.97,-10.42 -11.87,-12.24 z"
   class="st1"
   id="path7" />&#10;			</g>&#10;		</g>&#10;		<g
   id="shape7-12"
   transform="translate(330.236,-402.697)">&#10;			<title
   id="title8">Rectangle</title>&#10;			<desc
   id="desc8">Reverse Proxy</desc>&#10;			<rect
   x="0"
   y="777.047"
   width="86.456703"
   height="64.842499"
   rx="14.1732"
   ry="14.1732"
   class="st3"
   id="rect8" />&#10;			<text
   x="14.57"
   y="812.46997"
   class="st4"
   id="text8">Reverse Proxy</text>		</g>&#10;		<g
   id="group33-15"
   transform="translate(481.89,-520.157)">&#10;			<title
   id="title9">Web Page</title>&#10;			<desc
   id="desc9">Web App A</desc>&#10;			<g
   id="shape34-16"
   transform="translate(0,-16.0605)">&#10;				<title
   id="title10">Sheet.34</title>&#10;				<rect
   x="0"
   y="793.30603"
   width="61.776901"
   height="48.5839"
   class="st1"
   id="rect10" />&#10;			</g>&#10;			<g
   id="shape35-18"
   transform="translate(9.66943,-37.9899)">&#10;				<title
   id="title11">Sheet.35</title>&#10;				<path
   d="m 0,831.06 h 2.95 v -1.94 H 0 Z m 6.71,0 h 16.93 v -1.94 H 6.71 Z m 0,5.42 h 16.93 v -1.95 H 6.71 Z m -6.71,0 h 2.95 v -1.95 H 0 Z m 0,5.41 h 2.95 v -1.94 H 0 Z m 6.71,0 h 16.93 v -1.94 H 6.71 Z"
   class="st2"
   id="path11" />&#10;			</g>&#10;			<g
   id="shape36-21"
   transform="translate(1.34298,-0.552467)">&#10;				<title
   id="title12">Sheet.36</title>&#10;				<path
   d="m 0,786.82 h 59.09 v -7.78 H 0 Z m 69.52,36.24 a 18.2215,18.8339 -180 1 0 -36.44,0 18.2215,18.8339 -180 1 0 36.44,0 z"
   class="st1"
   id="path12" />&#10;			</g>&#10;			<g
   id="shape37-23"
   transform="translate(34.4232,-0.552469)">&#10;				<title
   id="title13">Sheet.37</title>&#10;				<path
   d="M 1.91,831.45 H 34.53"
   class="st5"
   id="path13" />&#10;				<path
   d="M 0,823.06 H 36.44"
   class="st5"
   id="path14" />&#10;				<path
   d="M 1.91,814.67 H 34.53"
   class="st5"
   id="path15" />&#10;				<path
   d="m 28.54,823.06 a 10.315,18.835543 -180 1 0 -20.63,0 10.315,18.835543 -180 1 0 20.63,0"
   class="st5"
   id="path16" />&#10;				<path
   d="M 18.22,841.89 V 804.22"
   class="st5"
   id="path17" />&#10;			</g>&#10;			<g
   id="shape33-30">&#10;				<text
   x="12.57"
   y="854.89001"
   class="st4"
   id="text17">Web App A</text>			</g>&#10;		</g>&#10;		<g
   id="group38-32"
   transform="translate(481.89,-402.52)">&#10;			<title
   id="title17">Web Page.38</title>&#10;			<desc
   id="desc17">Web App B</desc>&#10;			<g
   id="shape39-33"
   transform="translate(0,-16.0605)">&#10;				<title
   id="title18">Sheet.39</title>&#10;				<rect
   x="0"
   y="793.30603"
   width="61.776901"
   height="48.5839"
   class="st1"
   id="rect18" />&#10;			</g>&#10;			<g
   id="shape40-35"
   transform="translate(9.66943,-37.9899)">&#10;				<title
   id="title19">Sheet.40</title>&#10;				<path
   d="m 0,831.06 h 2.95 v -1.94 H 0 Z m 6.71,0 h 16.93 v -1.94 H 6.71 Z m 0,5.42 h 16.93 v -1.95 H 6.71 Z m -6.71,0 h 2.95 v -1.95 H 0 Z m 0,5.41 h 2.95 v -1.94 H 0 Z m 6.71,0 h 16.93 v -1.94 H 6.71 Z"
   class="st2"
   id="path19" />&#10;			</g>&#10;			<g
   id="shape41-38"
   transform="translate(1.34298,-0.552467)">&#10;				<title
   id="title20">Sheet.41</title>&#10;				<path
   d="m 0,786.82 h 59.09 v -7.78 H 0 Z m 69.52,36.24 a 18.2215,18.8339 -180 1 0 -36.44,0 18.2215,18.8339 -180 1 0 36.44,0 z"
   class="st1"
   id="path20" />&#10;			</g>&#10;			<g
   id="shape42-40"
   transform="translate(34.4232,-0.552469)">&#10;				<title
   id="title21">Sheet.42</title>&#10;				<path
   d="M 1.91,831.45 H 34.53"
   class="st5"
   id="path21" />&#10;				<path
   d="M 0,823.06 H 36.44"
   class="st5"
   id="path22" />&#10;				<path
   d="M 1.91,814.67 H 34.53"
   class="st5"
   id="path23" />&#10;				<path
   d="m 28.54,823.06 a 10.315,18.835543 -180 1 0 -20.63,0 10.315,18.835543 -180 1 0 20.63,0"
   class="st5"
   id="path24" />&#10;				<path
   d="M 18.22,841.89 V 804.22"
   class="st5"
   id="path25" />&#10;			</g>&#10;			<g
   id="shape38-47">&#10;				<text
   x="12.74"
   y="854.89001"
   class="st4"
   id="text25">Web App B</text>			</g>&#10;		</g>&#10;		<g
   id="group43-49"
   transform="translate(481.89,-284.882)">&#10;			<title
   id="title25">Web Page.43</title>&#10;			<desc
   id="desc25">Web App C</desc>&#10;			<g
   id="shape44-50"
   transform="translate(0,-16.0605)">&#10;				<title
   id="title26">Sheet.44</title>&#10;				<rect
   x="0"
   y="793.30603"
   width="61.776901"
   height="48.5839"
   class="st1"
   id="rect26" />&#10;			</g>&#10;			<g
   id="shape45-52"
   transform="translate(9.66943,-37.9899)">&#10;				<title
   id="title27">Sheet.45</title>&#10;				<path
   d="m 0,831.06 h 2.95 v -1.94 H 0 Z m 6.71,0 h 16.93 v -1.94 H 6.71 Z m 0,5.42 h 16.93 v -1.95 H 6.71 Z m -6.71,0 h 2.95 v -1.95 H 0 Z m 0,5.41 h 2.95 v -1.94 H 0 Z m 6.71,0 h 16.93 v -1.94 H 6.71 Z"
   class="st2"
   id="path27" />&#10;			</g>&#10;			<g
   id="shape46-55"
   transform="translate(1.34298,-0.552467)">&#10;				<title
   id="title28">Sheet.46</title>&#10;				<path
   d="m 0,786.82 h 59.09 v -7.78 H 0 Z m 69.52,36.24 a 18.2215,18.8339 -180 1 0 -36.44,0 18.2215,18.8339 -180 1 0 36.44,0 z"
   class="st1"
   id="path28" />&#10;			</g>&#10;			<g
   id="shape47-57"
   transform="translate(34.4232,-0.552469)">&#10;				<title
   id="title29">Sheet.47</title>&#10;				<path
   d="M 1.91,831.45 H 34.53"
   class="st5"
   id="path29" />&#10;				<path
   d="M 0,823.06 H 36.44"
   class="st5"
   id="path30" />&#10;				<path
   d="M 1.91,814.67 H 34.53"
   class="st5"
   id="path31" />&#10;				<path
   d="m 28.54,823.06 a 10.315,18.835543 -180 1 0 -20.63,0 10.315,18.835543 -180 1 0 20.63,0"
   class="st5"
   id="path32" />&#10;				<path
   d="M 18.22,841.89 V 804.22"
   class="st5"
   id="path33" />&#10;			</g>&#10;			<g
   id="shape43-64">&#10;				<text
   x="12.8"
   y="854.89001"
   class="st4"
   id="text33">Web App C</text>			</g>&#10;		</g>&#10;		<g
   id="shape48-66"
   transform="translate(109.976,-442.205)">&#10;			<title
   id="title33">Dynamic connector</title>&#10;			<path
   d="M 0,848.98 H 70.58"
   class="st5"
   id="path34" />&#10;		</g>&#10;		<g
   id="shape49-69"
   transform="translate(264.991,-428.031)">&#10;			<title
   id="title34">Dynamic connector.49</title>&#10;			<path
   d="M 0,834.8 H 65.25"
   class="st5"
   id="path35" />&#10;		</g>&#10;		<g
   id="shape50-72"
   transform="translate(416.693,-428.031)">&#10;			<title
   id="title35">Dynamic connector.50</title>&#10;			<path
   d="M 0,834.8 H 22.07"
   class="st5"
   id="path36" />&#10;		</g>&#10;		<g
   id="shape51-75"
   transform="translate(410.63,-464.989)">&#10;			<title
   id="title36">Dynamic connector.51</title>&#10;			<path
   d="M 0,841.89 28.13,819.28"
   class="st5"
   id="path37" />&#10;		</g>&#10;		<g
   id="shape52-78"
   transform="translate(408.251,-403.907)">&#10;			<title
   id="title37">Dynamic connector.52</title>&#10;			<path
   d="m 0,841.89 33.79,30.32"
   class="st5"
   id="path38" />&#10;		</g>&#10;		<g
   id="shape56-81"
   transform="translate(330.236,-520.335)">&#10;			<title
   id="title38">Rectangle.56</title>&#10;			<desc
   id="desc38">HTTP Auth Server</desc>&#10;			<rect
   x="0"
   y="777.047"
   width="86.456703"
   height="64.842499"
   class="st6"
   id="rect38" />&#10;			<text
   x="6.75"
   y="812.46997"
   class="st7"
   id="text38">HTTP Auth Server</text>		</g>&#10;		<g
   id="shape57-84"
   transform="translate(366.378,-467.539)">&#10;			<title
   id="title39">Dynamic connector.57</title>&#10;			<path
   d="m 7.09,841.89 v -52.8"
   class="st5"
   id="path39" />&#10;		</g>&#10;		<g
   id="shape58-87"
   transform="translate(178.583,-285.059)">&#10;			<title
   id="title40">Rectangle.58</title>&#10;			<desc
   id="desc40">Identity Provider</desc>&#10;			<rect
   x="0"
   y="777.047"
   width="86.456703"
   height="64.842499"
   class="st6"
   id="rect40" />&#10;			<text
   x="8.1199999"
   y="812.46997"
   class="st7"
   id="text40">Identity Provider</text>		</g>&#10;		<g
   id="shape59-90"
   transform="translate(228.898,-410.812)">&#10;			<title
   id="title41">Dynamic connector.59</title>&#10;			<path
   d="M -7.09,841.89 V 902.8"
   class="st5"
   id="path41" />&#10;		</g>&#10;		<g
   id="shape61-93"
   transform="translate(438.761,-483.307)">&#10;			<title
   id="title42">Lock</title>&#10;			<path
   d="m 12.35,832.12 c 0,0.73 -0.44,1.36 -1.08,1.64 l 0.47,3.74 H 9.31 l 0.48,-3.74 c -0.64,-0.28 -1.08,-0.91 -1.08,-1.64 0,-0.99 0.81,-1.79 1.82,-1.79 1.01,0 1.82,0.8 1.82,1.79 z m 7.09,7.38 v -11.16 c 0,-0.44 -0.36,-0.8 -0.81,-0.8 H 2.43 c -0.45,0 -0.81,0.36 -0.81,0.8 v 11.16 c 0,0.44 0.36,0.8 0.81,0.8 h 16.2 c 0.45,0 0.81,-0.36 0.81,-0.8 z m -6.48,-16.47 c -0.07,-1.03 -1.15,-1.87 -2.43,-1.87 -1.3,0 -2.36,0.89 -2.42,2.02 H 8.1 v 2.76 h 4.86 z m -8.1,-0.09 c 0,0 0,1.42 0,3 h 1.62 c 0,-1.56 0,-3 0,-3 l 0.01,0.16 c 0.1,-1.98 1.88,-3.53 4.04,-3.53 2.16,0 3.94,1.52 4.05,3.37 0,0 0,1.44 0,3 h 1.62 c 0,-1.58 0,-3 0,-3 -0.16,-2.75 -2.64,-4.97 -5.67,-4.97 -3.03,0 -5.51,2.22 -5.65,5.05 z m 13.77,3 c 1.34,0 2.43,1.08 2.43,2.4 v 11.16 c 0,1.32 -1.09,2.39 -2.43,2.39 H 2.43 C 1.09,841.89 0,840.82 0,839.5 v -11.16 c 0,-1.32 1.09,-2.4 2.43,-2.4 h 0.81 v -3 h 0.02 c 0.18,-3.65 3.36,-6.56 7.27,-6.56 3.91,0 7.09,2.91 7.27,6.56 h 0.02 v 3 z"
   class="st8"
   id="path42" />&#10;		</g>&#10;		<g
   id="shape62-95"
   transform="translate(456.581,-502.138)">&#10;			<title
   id="title43">Dynamic connector.62</title>&#10;			<path
   d="M 0,841.89 40.9,807.81"
   class="st5"
   id="path43" />&#10;		</g>&#10;		<g
   id="shape63-98"
   transform="translate(438.761,-422.362)">&#10;			<title
   id="title44">Lock.63</title>&#10;			<path
   d="m 12.35,832.12 c 0,0.73 -0.44,1.36 -1.08,1.64 l 0.47,3.74 H 9.31 l 0.48,-3.74 c -0.64,-0.28 -1.08,-0.91 -1.08,-1.64 0,-0.99 0.81,-1.79 1.82,-1.79 1.01,0 1.82,0.8 1.82,1.79 z m 7.09,7.38 v -11.16 c 0,-0.44 -0.36,-0.8 -0.81,-0.8 H 2.43 c -0.45,0 -0.81,0.36 -0.81,0.8 v 11.16 c 0,0.44 0.36,0.8 0.81,0.8 h 16.2 c 0.45,0 0.81,-0.36 0.81,-0.8 z m -6.48,-16.47 c -0.07,-1.03 -1.15,-1.87 -2.43,-1.87 -1.3,0 -2.36,0.89 -2.42,2.02 H 8.1 v 2.76 h 4.86 z m -8.1,-0.09 c 0,0 0,1.42 0,3 h 1.62 c 0,-1.56 0,-3 0,-3 l 0.01,0.16 c 0.1,-1.98 1.88,-3.53 4.04,-3.53 2.16,0 3.94,1.52 4.05,3.37 0,0 0,1.44 0,3 h 1.62 c 0,-1.58 0,-3 0,-3 -0.16,-2.75 -2.64,-4.97 -5.67,-4.97 -3.03,0 -5.51,2.22 -5.65,5.05 z m 13.77,3 c 1.34,0 2.43,1.08 2.43,2.4 v 11.16 c 0,1.32 -1.09,2.39 -2.43,2.39 H 2.43 C 1.09,841.89 0,840.82 0,839.5 v -11.16 c 0,-1.32 1.09,-2.4 2.43,-2.4 h 0.81 v -3 h 0.02 c 0.18,-3.65 3.36,-6.56 7.27,-6.56 3.91,0 7.09,2.91 7.27,6.56 h 0.02 v 3 z"
   class="st8"
   id="path44" />&#10;		</g>&#10;		<g
   id="shape64-100"
   transform="translate(459.821,-428.031)">&#10;			<title
   id="title45">Dynamic connector.64</title>&#10;			<path
   d="M 0,834.8 H 22.07"
   class="st5"
   id="path45" />&#10;		</g>&#10;		<g
   id="shape65-103"
   transform="translate(438.761,-354.331)">&#10;			<title
   id="title46">Lock.65</title>&#10;			<path
   d="m 12.35,832.12 c 0,0.73 -0.44,1.36 -1.08,1.64 l 0.47,3.74 H 9.31 l 0.48,-3.74 c -0.64,-0.28 -1.08,-0.91 -1.08,-1.64 0,-0.99 0.81,-1.79 1.82,-1.79 1.01,0 1.82,0.8 1.82,1.79 z m 7.09,7.38 v -11.16 c 0,-0.44 -0.36,-0.8 -0.81,-0.8 H 2.43 c -0.45,0 -0.81,0.36 -0.81,0.8 v 11.16 c 0,0.44 0.36,0.8 0.81,0.8 h 16.2 c 0.45,0 0.81,-0.36 0.81,-0.8 z m -6.48,-16.47 c -0.07,-1.03 -1.15,-1.87 -2.43,-1.87 -1.3,0 -2.36,0.89 -2.42,2.02 H 8.1 v 2.76 h 4.86 z m -8.1,-0.09 c 0,0 0,1.42 0,3 h 1.62 c 0,-1.56 0,-3 0,-3 l 0.01,0.16 c 0.1,-1.98 1.88,-3.53 4.04,-3.53 2.16,0 3.94,1.52 4.05,3.37 0,0 0,1.44 0,3 h 1.62 c 0,-1.58 0,-3 0,-3 -0.16,-2.75 -2.64,-4.97 -5.67,-4.97 -3.03,0 -5.51,2.22 -5.65,5.05 z m 13.77,3 c 1.34,0 2.43,1.08 2.43,2.4 v 11.16 c 0,1.32 -1.09,2.39 -2.43,2.39 H 2.43 C 1.09,841.89 0,840.82 0,839.5 v -11.16 c 0,-1.32 1.09,-2.4 2.43,-2.4 h 0.81 v -3 h 0.02 c 0.18,-3.65 3.36,-6.56 7.27,-6.56 3.91,0 7.09,2.91 7.27,6.56 h 0.02 v 3 z"
   class="st8"
   id="path46" />&#10;		</g>&#10;		<g
   id="shape66-105"
   transform="translate(459.821,-359.408)">&#10;			<title
   id="title47">Dynamic connector.66</title>&#10;			<path
   d="m 0,841.89 22.07,16.09"
   class="st5"
   id="path47" />&#10;		</g>&#10;	</g>&#10;</svg>
