<?xml version="1.0" encoding="UTF-8" standalone="no"?>
<!DOCTYPE svg PUBLIC "-//W3C//DTD SVG 1.1//EN" "http://www.w3.org/Graphics/SVG/1.1/DTD/svg11.dtd">
<!-- Generated by Microsoft Visio, SVG Export architecture.svg Page-1 -->
<svg xmlns="http://www.w3.org/2000/svg" xmlns:xlink="http://www.w3.org/1999/xlink" xmlns:ev="http://www.w3.org/2001/xml-events"
		width="8.26772in" height="11.6929in" viewBox="0 0 595.276 841.89" xml:space="preserve" color-interpolation-filters="sRGB"
		class="st9">
	<style type="text/css">
	<![CDATA[
		.st1 {fill:#ffffff;stroke:#000000;stroke-linecap:round;stroke-linejoin:round;stroke-width:0.75}
		.st2 {fill:#000000}
		.st3 {fill:#ffffff;stroke:#000000;stroke-linecap:round;stroke-linejoin:round;stroke-width:0.24}
		.st4 {fill:#000000;font-family:Calibri;font-size:0.833336em}
		.st5 {stroke:#000000;stroke-linecap:round;stroke-linejoin:round;stroke-width:0.75}
		.st6 {fill:#ffffff;stroke:none;stroke-linecap:round;stroke-linejoin:round;stroke-width:0.24}
		.st7 {fill:#000000;font-family:Calibri;font-size:0.833336em;font-weight:bold}
		.st8 {fill:#000000;stroke:none;stroke-linecap:butt;stroke-width:0.75}
		.st9 {fill:none;fill-rule:evenodd;font-size:12px;overflow:visible;stroke-linecap:square;stroke-miterlimit:3}
	]]>
	</style>

	<g>
		<title>Page-1</title>
		<g id="group1-1" transform="translate(42.5197,-399.685)">
			<title>Terminal</title>
			<g id="shape2-2" transform="translate(0,-4.14563)">
				<title>Sheet.2</title>
				<path d="M67.46 779.31 L4.12 779.31 L4.12 821.58 L67.46 821.58 L67.46 779.31 ZM70.87 841.89 L60.24 828.56 L10.63
							 828.56 L0 841.89 L70.87 841.89 ZM41 821.58 L29.87 821.58 L29.87 828.56 L41 828.56 L41 821.58 Z"
						class="st1"/>
			</g>
			<g id="shape3-4" transform="translate(8.22949,-28.2604)">
				<title>Sheet.3</title>
				<path d="M55.21 807.62 L0 807.62 L0 841.89 L55.21 841.89 L55.21 807.62 Z" class="st1"/>
			</g>
			<g id="shape4-6" transform="translate(9.64422,-6.8964)">
				<title>Sheet.4</title>
				<path d="M48.39 836.72 L45.24 836.72 L47.01 838.68 L50.4 838.68 L48.39 836.72 ZM44.83 833.24 L42.12 833.24 L44.01
							 835.35 L46.99 835.35 L44.83 833.24 ZM43.55 836.72 L40.4 836.72 L41.78 838.68 L45.18 838.68 L43.55 836.72
							 ZM40.66 833.24 L37.94 833.24 L39.43 835.35 L42.41 835.35 L40.66 833.24 ZM38.7 836.72 L35.55 836.72 L36.56
							 838.68 L39.96 838.68 L38.7 836.72 ZM36.49 833.24 L33.78 833.24 L34.86 835.39 L37.85 835.39 L36.49 833.24
							 ZM33.86 836.72 L30.71 836.72 L31.34 838.68 L34.73 838.68 L33.86 836.72 ZM32.38 833.39 L29.64 833.39
							 L30.28 835.39 L33.27 835.39 L32.38 833.39 ZM29.01 836.72 L25.86 836.72 L26.11 838.68 L29.51 838.68 L29.01
							 836.72 ZM28.22 833.56 L25.46 833.56 L25.71 835.52 L28.71 835.52 L28.22 833.56 ZM23.98 833.56 L21.23
							 833.56 L21.1 835.52 L24.1 835.52 L23.98 833.56 ZM24.17 836.72 L21.02 836.72 L20.89 838.68 L24.29 838.68
							 L24.17 836.72 ZM19.75 833.56 L17 833.56 L16.49 835.52 L19.49 835.52 L19.75 833.56 ZM19.33 836.72 L16.18
							 836.72 L15.67 838.68 L19.06 838.68 L19.33 836.72 ZM36.6 839.93 L14.38 839.93 L13.8 841.89 L37.56 841.89
							 L36.6 839.93 ZM15.51 833.56 L12.76 833.56 L11.88 835.52 L14.87 835.52 L15.51 833.56 ZM14.48 836.72 L11.33
							 836.72 L10.44 838.68 L13.84 838.68 L14.48 836.72 ZM11.28 833.56 L8.53 833.56 L7.26 835.52 L10.26 835.52
							 L11.28 833.56 ZM9.64 836.72 L6.49 836.72 L5.22 838.68 L8.62 838.68 L9.64 836.72 ZM7.05 833.56 L4.29
							 833.56 L2.65 835.52 L5.65 835.52 L7.05 833.56 ZM4.79 836.72 L1.64 836.72 L0 838.68 L3.4 838.68 L4.79
							 836.72 Z" class="st2"/>
			</g>
		</g>
		<g id="group5-9" transform="translate(178.583,-391.89)">
			<title>Cloud</title>
			<g id="shape6-10" transform="translate(0,-18.4448)">
				<title>Sheet.6</title>
				<path d="M74.59 805.83 C74.13 801.74 70.41 798.55 65.85 798.55 C64.55 798.55 63.34 798.82 62.23 799.28 C60.08 795.26
							 55.64 792.32 47.3 792.56 C36.47 792.87 23.64 797.74 21.06 806.4 C17.97 806.99 15.99 808.66 14.8 810.89
							 C14.32 810.84 13.83 810.81 13.33 810.81 C6.2 810.81 0.72 816.01 0.41 822.42 C0 830.72 6.2 834.04 13.33
							 834.04 C14.35 834.04 15.33 833.92 16.29 833.72 C17.77 834.69 19.7 835.28 21.82 835.28 C23.78 835.28
							 25.58 834.77 27.02 833.93 C29.76 838.6 35.41 841.89 41.91 841.5 C48.77 841.11 52.88 839.65 55.3 837.39
							 C55.46 837.38 55.6 837.38 55.75 837.36 C63.41 836.37 66.78 834.39 67.86 831.12 C68.07 831.13 68.27 831.13
							 68.48 831.13 C78.41 831.13 86.46 828.23 86.46 818.07 C86.46 812.42 81.49 807.65 74.59 805.83 Z"
						class="st1"/>
			</g>
		</g>
		<g id="shape7-12" transform="translate(330.236,-402.697)">
			<title>Rectangle</title>
			<desc>Reverse Proxy</desc>
			<rect x="0" y="777.047" width="86.4567" height="64.8425" rx="14.1732" ry="14.1732" class="st3"/>
			<text x="14.57" y="812.47" class="st4">Reverse Proxy</text>		</g>
		<g id="group33-15" transform="translate(481.89,-520.157)">
			<title>Web Page</title>
			<desc>Web App A</desc>
			<g id="shape34-16" transform="translate(0,-16.0605)">
				<title>Sheet.34</title>
				<rect x="0" y="793.306" width="61.7769" height="48.5839" class="st1"/>
			</g>
			<g id="shape35-18" transform="translate(9.66943,-37.9899)">
				<title>Sheet.35</title>
				<path d="M0 831.06 L2.95 831.06 L2.95 829.12 L0 829.12 L0 831.06 ZM6.71 831.06 L23.64 831.06 L23.64 829.12 L6.71
							 829.12 L6.71 831.06 ZM6.71 836.48 L23.64 836.48 L23.64 834.53 L6.71 834.53 L6.71 836.48 ZM0 836.48 L2.95
							 836.48 L2.95 834.53 L0 834.53 L0 836.48 ZM0 841.89 L2.95 841.89 L2.95 839.95 L0 839.95 L0 841.89 ZM6.71
							 841.89 L23.64 841.89 L23.64 839.95 L6.71 839.95 L6.71 841.89 Z" class="st2"/>
			</g>
			<g id="shape36-21" transform="translate(1.34298,-0.552467)">
				<title>Sheet.36</title>
				<path d="M0 786.82 L59.09 786.82 L59.09 779.04 L0 779.04 L0 786.82 ZM69.52 823.06 A18.2215 18.8339 -180 1 0 33.08
							 823.06 A18.2215 18.8339 -180 1 0 69.52 823.06 Z" class="st1"/>
			</g>
			<g id="shape37-23" transform="translate(34.4232,-0.552469)">
				<title>Sheet.37</title>
				<path d="M1.91 831.45 L34.53 831.45" class="st5"/>
				<path d="M-0 823.06 L36.44 823.06" class="st5"/>
				<path d="M1.91 814.67 L34.53 814.67" class="st5"/>
				<path d="M28.54 823.06 A10.3141 18.8339 -180 1 0 7.91 823.06 A10.3141 18.8339 -180 1 0 28.54 823.06" class="st5"/>
				<path d="M18.22 841.89 L18.22 804.22" class="st5"/>
			</g>
			<g id="shape33-30">
				<text x="12.57" y="854.89" class="st4">Web App A</text>			</g>
		</g>
		<g id="group38-32" transform="translate(481.89,-402.52)">
			<title>Web Page.38</title>
			<desc>Web App B</desc>
			<g id="shape39-33" transform="translate(0,-16.0605)">
				<title>Sheet.39</title>
				<rect x="0" y="793.306" width="61.7769" height="48.5839" class="st1"/>
			</g>
			<g id="shape40-35" transform="translate(9.66943,-37.9899)">
				<title>Sheet.40</title>
				<path d="M0 831.06 L2.95 831.06 L2.95 829.12 L0 829.12 L0 831.06 ZM6.71 831.06 L23.64 831.06 L23.64 829.12 L6.71
							 829.12 L6.71 831.06 ZM6.71 836.48 L23.64 836.48 L23.64 834.53 L6.71 834.53 L6.71 836.48 ZM0 836.48 L2.95
							 836.48 L2.95 834.53 L0 834.53 L0 836.48 ZM0 841.89 L2.95 841.89 L2.95 839.95 L0 839.95 L0 841.89 ZM6.71
							 841.89 L23.64 841.89 L23.64 839.95 L6.71 839.95 L6.71 841.89 Z" class="st2"/>
			</g>
			<g id="shape41-38" transform="translate(1.34298,-0.552467)">
				<title>Sheet.41</title>
				<path d="M0 786.82 L59.09 786.82 L59.09 779.04 L0 779.04 L0 786.82 ZM69.52 823.06 A18.2215 18.8339 -180 1 0 33.08
							 823.06 A18.2215 18.8339 -180 1 0 69.52 823.06 Z" class="st1"/>
			</g>
			<g id="shape42-40" transform="translate(34.4232,-0.552469)">
				<title>Sheet.42</title>
				<path d="M1.91 831.45 L34.53 831.45" class="st5"/>
				<path d="M-0 823.06 L36.44 823.06" class="st5"/>
				<path d="M1.91 814.67 L34.53 814.67" class="st5"/>
				<path d="M28.54 823.06 A10.3141 18.8339 -180 1 0 7.91 823.06 A10.3141 18.8339 -180 1 0 28.54 823.06" class="st5"/>
				<path d="M18.22 841.89 L18.22 804.22" class="st5"/>
			</g>
			<g id="shape38-47">
				<text x="12.74" y="854.89" class="st4">Web App B</text>			</g>
		</g>
		<g id="group43-49" transform="translate(481.89,-284.882)">
			<title>Web Page.43</title>
			<desc>Web App C</desc>
			<g id="shape44-50" transform="translate(0,-16.0605)">
				<title>Sheet.44</title>
				<rect x="0" y="793.306" width="61.7769" height="48.5839" class="st1"/>
			</g>
			<g id="shape45-52" transform="translate(9.66943,-37.9899)">
				<title>Sheet.45</title>
				<path d="M0 831.06 L2.95 831.06 L2.95 829.12 L0 829.12 L0 831.06 ZM6.71 831.06 L23.64 831.06 L23.64 829.12 L6.71
							 829.12 L6.71 831.06 ZM6.71 836.48 L23.64 836.48 L23.64 834.53 L6.71 834.53 L6.71 836.48 ZM0 836.48 L2.95
							 836.48 L2.95 834.53 L0 834.53 L0 836.48 ZM0 841.89 L2.95 841.89 L2.95 839.95 L0 839.95 L0 841.89 ZM6.71
							 841.89 L23.64 841.89 L23.64 839.95 L6.71 839.95 L6.71 841.89 Z" class="st2"/>
			</g>
			<g id="shape46-55" transform="translate(1.34298,-0.552467)">
				<title>Sheet.46</title>
				<path d="M0 786.82 L59.09 786.82 L59.09 779.04 L0 779.04 L0 786.82 ZM69.52 823.06 A18.2215 18.8339 -180 1 0 33.08
							 823.06 A18.2215 18.8339 -180 1 0 69.52 823.06 Z" class="st1"/>
			</g>
			<g id="shape47-57" transform="translate(34.4232,-0.552469)">
				<title>Sheet.47</title>
				<path d="M1.91 831.45 L34.53 831.45" class="st5"/>
				<path d="M-0 823.06 L36.44 823.06" class="st5"/>
				<path d="M1.91 814.67 L34.53 814.67" class="st5"/>
				<path d="M28.54 823.06 A10.3141 18.8339 -180 1 0 7.91 823.06 A10.3141 18.8339 -180 1 0 28.54 823.06" class="st5"/>
				<path d="M18.22 841.89 L18.22 804.22" class="st5"/>
			</g>
			<g id="shape43-64">
				<text x="12.8" y="854.89" class="st4">Web App C</text>			</g>
		</g>
		<g id="shape48-66" transform="translate(109.976,-442.205)">
			<title>Dynamic connector</title>
			<path d="M0 848.98 L70.58 848.98" class="st5"/>
		</g>
		<g id="shape49-69" transform="translate(264.991,-428.031)">
			<title>Dynamic connector.49</title>
			<path d="M0 834.8 L65.25 834.8" class="st5"/>
		</g>
		<g id="shape50-72" transform="translate(416.693,-428.031)">
			<title>Dynamic connector.50</title>
			<path d="M0 834.8 L22.07 834.8" class="st5"/>
		</g>
		<g id="shape51-75" transform="translate(410.63,-464.989)">
			<title>Dynamic connector.51</title>
			<path d="M0 841.89 L28.13 819.28" class="st5"/>
		</g>
		<g id="shape52-78" transform="translate(408.251,-403.907)">
			<title>Dynamic connector.52</title>
			<path d="M0 841.89 L33.79 872.21" class="st5"/>
		</g>
		<g id="shape56-81" transform="translate(330.236,-520.335)">
			<title>Rectangle.56</title>
			<desc>HTTP Auth Server</desc>
			<rect x="0" y="777.047" width="86.4567" height="64.8425" class="st6"/>
			<text x="6.75" y="812.47" class="st7">HTTP Auth Server</text>		</g>
		<g id="shape57-84" transform="translate(366.378,-467.539)">
			<title>Dynamic connector.57</title>
			<path d="M7.09 841.89 L7.09 789.09" class="st5"/>
		</g>
		<g id="shape58-87" transform="translate(178.583,-285.059)">
			<title>Rectangle.58</title>
			<desc>Identity Provider</desc>
			<rect x="0" y="777.047" width="86.4567" height="64.8425" class="st6"/>
			<text x="8.12" y="812.47" class="st7">Identity Provider</text>		</g>
		<g id="shape59-90" transform="translate(228.898,-410.812)">
			<title>Dynamic connector.59</title>
			<path d="M-7.09 841.89 L-7.09 902.8" class="st5"/>
		</g>
		<g id="shape61-93" transform="translate(438.761,-483.307)">
			<title>Lock</title>
			<path d="M12.35 832.12 C12.35 832.85 11.91 833.48 11.27 833.76 L11.74 837.5 L9.31 837.5 L9.79 833.76 C9.15 833.48 8.71
						 832.85 8.71 832.12 C8.71 831.13 9.52 830.33 10.53 830.33 C11.54 830.33 12.35 831.13 12.35 832.12 ZM19.44
						 839.5 L19.44 828.34 C19.44 827.9 19.08 827.54 18.63 827.54 L2.43 827.54 C1.98 827.54 1.62 827.9 1.62 828.34
						 L1.62 839.5 C1.62 839.94 1.98 840.3 2.43 840.3 L18.63 840.3 C19.08 840.3 19.44 839.94 19.44 839.5 ZM12.96
						 823.03 C12.89 822 11.81 821.16 10.53 821.16 C9.23 821.16 8.17 822.05 8.11 823.18 L8.1 823.18 L8.1 825.94
						 L12.96 825.94 L12.96 823.03 ZM4.86 822.94 C4.86 822.94 4.86 824.36 4.86 825.94 L6.48 825.94 C6.48 824.38
						 6.48 822.94 6.48 822.94 L6.49 823.1 C6.59 821.12 8.37 819.57 10.53 819.57 C12.69 819.57 14.47 821.09 14.58
						 822.94 C14.58 822.94 14.58 824.38 14.58 825.94 L16.2 825.94 C16.2 824.36 16.2 822.94 16.2 822.94 C16.04
						 820.19 13.56 817.97 10.53 817.97 C7.5 817.97 5.02 820.19 4.88 823.02 L4.86 822.94 ZM18.63 825.94 C19.97
						 825.94 21.06 827.02 21.06 828.34 L21.06 839.5 C21.06 840.82 19.97 841.89 18.63 841.89 L2.43 841.89 C1.09
						 841.89 0 840.82 0 839.5 L0 828.34 C0 827.02 1.09 825.94 2.43 825.94 L3.24 825.94 L3.24 822.94 L3.26 822.94
						 C3.44 819.29 6.62 816.38 10.53 816.38 C14.44 816.38 17.62 819.29 17.8 822.94 L17.82 822.94 L17.82 825.94
						 L18.63 825.94 Z" class="st8"/>
		</g>
		<g id="shape62-95" transform="translate(456.581,-502.138)">
			<title>Dynamic connector.62</title>
			<path d="M0 841.89 L40.9 807.81" class="st5"/>
		</g>
		<g id="shape63-98" transform="translate(438.761,-422.362)">
			<title>Lock.63</title>
			<path d="M12.35 832.12 C12.35 832.85 11.91 833.48 11.27 833.76 L11.74 837.5 L9.31 837.5 L9.79 833.76 C9.15 833.48 8.71
						 832.85 8.71 832.12 C8.71 831.13 9.52 830.33 10.53 830.33 C11.54 830.33 12.35 831.13 12.35 832.12 ZM19.44
						 839.5 L19.44 828.34 C19.44 827.9 19.08 827.54 18.63 827.54 L2.43 827.54 C1.98 827.54 1.62 827.9 1.62 828.34
						 L1.62 839.5 C1.62 839.94 1.98 840.3 2.43 840.3 L18.63 840.3 C19.08 840.3 19.44 839.94 19.44 839.5 ZM12.96
						 823.03 C12.89 822 11.81 821.16 10.53 821.16 C9.23 821.16 8.17 822.05 8.11 823.18 L8.1 823.18 L8.1 825.94
						 L12.96 825.94 L12.96 823.03 ZM4.86 822.94 C4.86 822.94 4.86 824.36 4.86 825.94 L6.48 825.94 C6.48 824.38
						 6.48 822.94 6.48 822.94 L6.49 823.1 C6.59 821.12 8.37 819.57 10.53 819.57 C12.69 819.57 14.47 821.09 14.58
						 822.94 C14.58 822.94 14.58 824.38 14.58 825.94 L16.2 825.94 C16.2 824.36 16.2 822.94 16.2 822.94 C16.04
						 820.19 13.56 817.97 10.53 817.97 C7.5 817.97 5.02 820.19 4.88 823.02 L4.86 822.94 ZM18.63 825.94 C19.97
						 825.94 21.06 827.02 21.06 828.34 L21.06 839.5 C21.06 840.82 19.97 841.89 18.63 841.89 L2.43 841.89 C1.09
						 841.89 0 840.82 0 839.5 L0 828.34 C0 827.02 1.09 825.94 2.43 825.94 L3.24 825.94 L3.24 822.94 L3.26 822.94
						 C3.44 819.29 6.62 816.38 10.53 816.38 C14.44 816.38 17.62 819.29 17.8 822.94 L17.82 822.94 L17.82 825.94
						 L18.63 825.94 Z" class="st8"/>
		</g>
		<g id="shape64-100" transform="translate(459.821,-428.031)">
			<title>Dynamic connector.64</title>
			<path d="M0 834.8 L22.07 834.8" class="st5"/>
		</g>
		<g id="shape65-103" transform="translate(438.761,-354.331)">
			<title>Lock.65</title>
			<path d="M12.35 832.12 C12.35 832.85 11.91 833.48 11.27 833.76 L11.74 837.5 L9.31 837.5 L9.79 833.76 C9.15 833.48 8.71
						 832.85 8.71 832.12 C8.71 831.13 9.52 830.33 10.53 830.33 C11.54 830.33 12.35 831.13 12.35 832.12 ZM19.44
						 839.5 L19.44 828.34 C19.44 827.9 19.08 827.54 18.63 827.54 L2.43 827.54 C1.98 827.54 1.62 827.9 1.62 828.34
						 L1.62 839.5 C1.62 839.94 1.98 840.3 2.43 840.3 L18.63 840.3 C19.08 840.3 19.44 839.94 19.44 839.5 ZM12.96
						 823.03 C12.89 822 11.81 821.16 10.53 821.16 C9.23 821.16 8.17 822.05 8.11 823.18 L8.1 823.18 L8.1 825.94
						 L12.96 825.94 L12.96 823.03 ZM4.86 822.94 C4.86 822.94 4.86 824.36 4.86 825.94 L6.48 825.94 C6.48 824.38
						 6.48 822.94 6.48 822.94 L6.49 823.1 C6.59 821.12 8.37 819.57 10.53 819.57 C12.69 819.57 14.47 821.09 14.58
						 822.94 C14.58 822.94 14.58 824.38 14.58 825.94 L16.2 825.94 C16.2 824.36 16.2 822.94 16.2 822.94 C16.04
						 820.19 13.56 817.97 10.53 817.97 C7.5 817.97 5.02 820.19 4.88 823.02 L4.86 822.94 ZM18.63 825.94 C19.97
						 825.94 21.06 827.02 21.06 828.34 L21.06 839.5 C21.06 840.82 19.97 841.89 18.63 841.89 L2.43 841.89 C1.09
						 841.89 0 840.82 0 839.5 L0 828.34 C0 827.02 1.09 825.94 2.43 825.94 L3.24 825.94 L3.24 822.94 L3.26 822.94
						 C3.44 819.29 6.62 816.38 10.53 816.38 C14.44 816.38 17.62 819.29 17.8 822.94 L17.82 822.94 L17.82 825.94
						 L18.63 825.94 Z" class="st8"/>
		</g>
		<g id="shape66-105" transform="translate(459.821,-359.408)">
			<title>Dynamic connector.66</title>
			<path d="M0 841.89 L22.07 857.98" class="st5"/>
		</g>
	</g>
</svg>
